<svg width="28" height="30" viewBox="0 0 28 30" fill="none" xmlns="http://www.w3.org/2000/svg">
<g filter="url(#filter0_d_931_1200)">
<path fill-rule="evenodd" clip-rule="evenodd" d="M11.1572 20.7714V17.7047C11.1572 16.9246 11.7931 16.2908 12.581 16.2856H15.4671C16.2587 16.2856 16.9005 16.9209 16.9005 17.7047V20.7809C16.9003 21.4432 17.4343 21.9845 18.103 22H20.0271C21.9451 22 23.5 20.4607 23.5 18.5618V9.83784C23.4898 9.09083 23.1355 8.38935 22.538 7.93303L15.9577 2.6853C14.8049 1.77157 13.1662 1.77157 12.0134 2.6853L5.46203 7.94256C4.86226 8.39702 4.50739 9.09967 4.5 9.84736V18.5618C4.5 20.4607 6.05488 22 7.97291 22H9.89696C10.5824 22 11.138 21.4499 11.138 20.7714" fill="url(#paint0_linear_931_1200)"/>
</g>
<defs>
<filter id="filter0_d_931_1200" x="-2" y="0" width="32" height="32" filterUnits="userSpaceOnUse" color-interpolation-filters="sRGB">
<feFlood flood-opacity="0" result="BackgroundImageFix"/>
<feColorMatrix in="SourceAlpha" type="matrix" values="0 0 0 0 0 0 0 0 0 0 0 0 0 0 0 0 0 0 127 0" result="hardAlpha"/>
<feOffset dy="4"/>
<feGaussianBlur stdDeviation="2"/>
<feComposite in2="hardAlpha" operator="out"/>
<feColorMatrix type="matrix" values="0 0 0 0 0 0 0 0 0 0 0 0 0 0 0 0 0 0 0.25 0"/>
<feBlend mode="normal" in2="BackgroundImageFix" result="effect1_dropShadow_931_1200"/>
<feBlend mode="normal" in="SourceGraphic" in2="effect1_dropShadow_931_1200" result="shape"/>
</filter>
<linearGradient id="paint0_linear_931_1200" x1="23.5" y1="22" x2="-1.83778" y2="20.1374" gradientUnits="userSpaceOnUse">
<stop stop-color="#C58BF2"/>
<stop offset="1" stop-color="#EEA4CE"/>
</linearGradient>
</defs>
</svg>
